<svg width="67" height="67" viewBox="0 0 67 67" fill="none" xmlns="http://www.w3.org/2000/svg">
<path fill-rule="evenodd" clip-rule="evenodd" d="M33.3333 66.6667C51.7433 66.6667 66.6667 51.7433 66.6667 33.3333C66.6667 14.9233 51.7433 0 33.3333 0C14.9233 0 0 14.9233 0 33.3333C0 51.7433 14.9233 66.6667 33.3333 66.6667ZM46.8867 19.78C47.3548 20.2488 47.6178 20.8842 47.6178 21.5467C47.6178 22.2092 47.3548 22.8446 46.8867 23.3133L36.8667 33.3333L46.8833 43.35C47.3249 43.8239 47.5653 44.4507 47.5539 45.0984C47.5425 45.7461 47.2801 46.364 46.8221 46.8221C46.364 47.2801 45.7461 47.5425 45.0984 47.5539C44.4507 47.5653 43.8239 47.3249 43.35 46.8833L33.3333 36.8733L23.3167 46.89C23.0878 47.1356 22.8118 47.3326 22.5051 47.4693C22.1985 47.6059 21.8674 47.6794 21.5317 47.6853C21.1961 47.6912 20.8626 47.6295 20.5513 47.5037C20.24 47.378 19.9573 47.1909 19.7199 46.9535C19.4825 46.7161 19.2953 46.4333 19.1696 46.122C19.0439 45.8107 18.9821 45.4773 18.988 45.1416C18.994 44.8059 19.0674 44.4749 19.2041 44.1682C19.3407 43.8615 19.5377 43.5855 19.7833 43.3567L29.7933 33.3333L19.78 23.3167C19.5344 23.0878 19.3374 22.8118 19.2007 22.5051C19.0641 22.1985 18.9906 21.8674 18.9847 21.5317C18.9788 21.1961 19.0405 20.8626 19.1663 20.5513C19.292 20.24 19.4791 19.9573 19.7165 19.7199C19.9539 19.4825 20.2367 19.2953 20.548 19.1696C20.8593 19.0439 21.1927 18.9821 21.5284 18.988C21.8641 18.994 22.1951 19.0674 22.5018 19.2041C22.8085 19.3407 23.0845 19.5377 23.3133 19.7833L33.3333 29.7933L43.35 19.7767C43.8188 19.3085 44.4542 19.0455 45.1167 19.0455C45.7792 19.0455 46.4146 19.3085 46.8833 19.7767" fill="#36465D"/>
</svg>
